<?xml version="1.0" encoding="UTF-8" standalone="no"?>
<!-- Created with Inkscape (http://www.inkscape.org/) -->

<svg
   xmlns:dc="http://purl.org/dc/elements/1.1/"
   xmlns:cc="http://creativecommons.org/ns#"
   xmlns:rdf="http://www.w3.org/1999/02/22-rdf-syntax-ns#"
   xmlns:svg="http://www.w3.org/2000/svg"
   xmlns="http://www.w3.org/2000/svg"
   xmlns:xlink="http://www.w3.org/1999/xlink"
   xmlns:sodipodi="http://sodipodi.sourceforge.net/DTD/sodipodi-0.dtd"
   xmlns:inkscape="http://www.inkscape.org/namespaces/inkscape"
   id="svg1"
   sodipodi:version="0.32"
   inkscape:version="0.91 r13725"
   width="210mm"
   height="297mm"
   sodipodi:docname="logo_galette.svg"
   version="1.1">
  <defs
     id="defs3">
    <linearGradient
       id="linearGradient6205">
      <stop
         style="stop-color:#a1a1a1;stop-opacity:1.0000000;"
         offset="0.0000000"
         id="stop6206" />
      <stop
         style="stop-color:#acacac;stop-opacity:0.49803922;"
         offset="0.50000000"
         id="stop6830" />
      <stop
         style="stop-color:#d0d0d0;stop-opacity:0.0000000;"
         offset="1.0000000"
         id="stop6207" />
    </linearGradient>
    <linearGradient
       id="linearGradient2169">
      <stop
         style="stop-color:#ffd585;stop-opacity:1.0000000;"
         offset="0.0000000"
         id="stop2170" />
      <stop
         style="stop-color:#f0a015;stop-opacity:1.0000000;"
         offset="1.0000000"
         id="stop2171" />
    </linearGradient>
    <linearGradient
       id="linearGradient2817">
      <stop
         style="stop-color:#000000;stop-opacity:0.42268041;"
         offset="0.0000000"
         id="stop2818" />
      <stop
         style="stop-color:#fcffff;stop-opacity:0.0000000;"
         offset="1.0000000"
         id="stop2819" />
    </linearGradient>
    <linearGradient
       id="linearGradient1562">
      <stop
         style="stop-color:#ffc557;stop-opacity:1.0000000;"
         offset="0.0000000"
         id="stop1563" />
      <stop
         style="stop-color:#f0a015;stop-opacity:1.0000000;"
         offset="1.0000000"
         id="stop1564" />
    </linearGradient>
    <linearGradient
       inkscape:collect="always"
       xlink:href="#linearGradient2169"
       id="linearGradient1565"
       x1="0.12835322"
       y1="0.54250169"
       x2="1.0255545"
       y2="0.28385019" />
    <linearGradient
       inkscape:collect="always"
       xlink:href="#linearGradient1562"
       id="linearGradient2816"
       x1="0.26345459"
       y1="0.38033324"
       x2="0.43797091"
       y2="0.86091405" />
    <radialGradient
       inkscape:collect="always"
       xlink:href="#linearGradient6205"
       id="radialGradient9090"
       cx="0.50000000"
       cy="0.50000000"
       r="0.50000000"
       fx="0.50000000"
       fy="0.50000000" />
    <linearGradient
       inkscape:collect="always"
       xlink:href="#linearGradient2169"
       id="linearGradient2168"
       x1="0.25925925"
       y1="0.78906250"
       x2="0.74814814"
       y2="0.32031250" />
    <linearGradient
       inkscape:collect="always"
       xlink:href="#linearGradient2169"
       id="linearGradient2172"
       x1="0.48587570"
       y1="0.85156250"
       x2="0.80225986"
       y2="0.25781250" />
    <linearGradient
       inkscape:collect="always"
       xlink:href="#linearGradient2169"
       id="linearGradient2173"
       x1="0.20000000"
       y1="0.75781250"
       x2="0.68000001"
       y2="0.25781250" />
    <linearGradient
       inkscape:collect="always"
       xlink:href="#linearGradient2169"
       id="linearGradient3418"
       x1="0.28346458"
       y1="0.69531250"
       x2="0.74015749"
       y2="0.42968750" />
    <linearGradient
       inkscape:collect="always"
       xlink:href="#linearGradient2169-1"
       id="linearGradient1387"
       x1="392.76422"
       y1="379.06757"
       x2="446.03101"
       y2="525.75299"
       gradientTransform="scale(1.052501,0.950118)"
       gradientUnits="userSpaceOnUse" />
    <linearGradient
       id="linearGradient2169-1">
      <stop
         style="stop-color:#ffd585;stop-opacity:1.0000000;"
         offset="0.0000000"
         id="stop2170-5" />
      <stop
         style="stop-color:#f0a015;stop-opacity:1.0000000;"
         offset="1.0000000"
         id="stop2171-9" />
    </linearGradient>
    <linearGradient
       inkscape:collect="always"
       xlink:href="#linearGradient2169-1"
       id="linearGradient1389"
       x1="351.52786"
       y1="428.56549"
       x2="625.3764"
       y2="349.6185"
       gradientTransform="scale(1.052501,0.950118)"
       gradientUnits="userSpaceOnUse" />
    <linearGradient
       id="linearGradient3075">
      <stop
         style="stop-color:#ffd585;stop-opacity:1.0000000;"
         offset="0.0000000"
         id="stop3077" />
      <stop
         style="stop-color:#f0a015;stop-opacity:1.0000000;"
         offset="1.0000000"
         id="stop3079" />
    </linearGradient>
    <linearGradient
       y2="349.6185"
       x2="625.3764"
       y1="428.56549"
       x1="351.52786"
       gradientTransform="scale(1.052501,0.950118)"
       gradientUnits="userSpaceOnUse"
       id="linearGradient3086"
       xlink:href="#linearGradient2169-1"
       inkscape:collect="always" />
  </defs>
  <sodipodi:namedview
     id="base"
     pagecolor="#ffffff"
     bordercolor="#666666"
     borderopacity="1.0"
     inkscape:pageopacity="0.0"
     inkscape:pageshadow="2"
     inkscape:zoom="0.33829066"
     inkscape:cx="-537.52974"
     inkscape:cy="22.588478"
     inkscape:window-width="1920"
     inkscape:window-height="1016"
     inkscape:window-x="0"
     inkscape:window-y="27"
     showgrid="false"
     inkscape:window-maximized="1"
     inkscape:current-layer="svg1" />
  <metadata
     id="metadata4">
    <rdf:RDF>
      <cc:Work
         rdf:about="">
        <dc:format>image/svg+xml</dc:format>
        <dc:type
           rdf:resource="http://purl.org/dc/dcmitype/StillImage" />
        <dc:title></dc:title>
        <cc:license
           rdf:resource="https://www.gnu.org/licenses/gpl-3.0.html" />
      </cc:Work>
    </rdf:RDF>
  </metadata>
  <g
     transform="translate(363.5927,-302.255)"
     id="g3054"
     inkscape:export-filename="/home/trasher/Bureau/g48px.png"
     inkscape:export-xdpi="6.2309327"
     inkscape:export-ydpi="6.2309327">
    <path
       inkscape:export-ydpi="90"
       inkscape:export-xdpi="90"
       inkscape:export-filename="/home/ltaulell/path1385.png"
       transform="matrix(-0.09117111,-0.850094,1.018916,-0.224729,-149.5587,1403.643)"
       d="m 650,394.86218 a 160.625,145 0 0 1 -160.625,145 160.625,145 0 0 1 -160.625,-145 160.625,145 0 0 1 160.625,-145 160.625,145 0 0 1 160.625,145 z"
       sodipodi:ry="145"
       sodipodi:rx="160.625"
       sodipodi:cy="394.86218"
       sodipodi:cx="489.375"
       id="path1379"
       style="fill:#000000;fill-opacity:1;fill-rule:evenodd;stroke:none"
       sodipodi:type="arc" />
    <path
       inkscape:export-ydpi="90"
       inkscape:export-xdpi="90"
       inkscape:export-filename="/home/ltaulell/path1385.png"
       transform="matrix(-0.08733334,-0.781981,0.976026,-0.206723,-135.7512,1368.201)"
       d="m 650,394.86218 a 160.625,145 0 0 1 -160.625,145 160.625,145 0 0 1 -160.625,-145 160.625,145 0 0 1 160.625,-145 160.625,145 0 0 1 160.625,145 z"
       sodipodi:ry="145"
       sodipodi:rx="160.625"
       sodipodi:cy="394.86218"
       sodipodi:cx="489.375"
       id="path1381"
       style="opacity:0.98000004;fill:url(#linearGradient1387);fill-opacity:1;fill-rule:evenodd;stroke:none"
       sodipodi:type="arc" />
    <path
       inkscape:export-ydpi="90"
       inkscape:export-xdpi="90"
       inkscape:export-filename="/home/ltaulell/path1385.png"
       transform="matrix(-0.09117111,-0.850094,1.018916,-0.224729,-160.8089,1381.143)"
       d="m 650,394.86218 a 160.625,145 0 0 1 -160.625,145 160.625,145 0 0 1 -160.625,-145 160.625,145 0 0 1 160.625,-145 160.625,145 0 0 1 160.625,145 z"
       sodipodi:ry="145"
       sodipodi:rx="160.625"
       sodipodi:cy="394.86218"
       sodipodi:cx="489.375"
       id="path1383"
       style="fill:#000000;fill-opacity:1;fill-rule:evenodd;stroke:none"
       sodipodi:type="arc" />
    <path
       inkscape:export-ydpi="90"
       inkscape:export-xdpi="90"
       inkscape:export-filename="/home/ltaulell/path1385.png"
       transform="matrix(-0.08733334,-0.834958,0.976026,-0.220728,-146.376,1374.656)"
       d="m 650,394.86218 a 160.625,145 0 0 1 -160.625,145 160.625,145 0 0 1 -160.625,-145 160.625,145 0 0 1 160.625,-145 160.625,145 0 0 1 160.625,145 z"
       sodipodi:ry="145"
       sodipodi:rx="160.625"
       sodipodi:cy="394.86218"
       sodipodi:cx="489.375"
       id="path1385"
       style="opacity:0.98876403;fill:url(#linearGradient3086);fill-opacity:1;fill-rule:evenodd;stroke:none"
       sodipodi:type="arc" />
  </g>
  <g
     id="g7495"
     inkscape:export-filename="/home/trasher/Bureau/g48px.png"
     inkscape:export-xdpi="6.2309327"
     inkscape:export-ydpi="6.2309327">
    <path
       style="fill:#000000;fill-opacity:0.040816311;fill-rule:evenodd;stroke:none;stroke-width:1.0000000pt;stroke-linecap:butt;stroke-linejoin:miter;stroke-opacity:1.0000000;"
       d="M 280.18750,554.97330 C 255.91812,563.96609 241.48448,588.04385 235.14368,612.01441 C 232.90406,622.51617 232.08934,608.79449 231.12809,604.91425 C 228.92723,586.55680 220.82531,565.57955 202.34187,558.45339 C 188.01330,555.84441 174.91589,565.59592 164.58828,574.39463 C 149.43128,588.09918 136.80039,605.03444 128.91040,623.90289 C 125.33816,631.86939 124.69781,645.71107 135.53125,647.84830 C 146.69464,647.06560 156.02340,638.21623 167.68429,639.48154 C 180.65001,640.18954 195.71712,636.72731 206.21875,646.53580 C 216.29007,651.53246 225.00827,640.78957 228.63784,632.60154 C 230.75863,626.70096 233.11945,618.58348 233.66656,629.67141 C 234.41661,642.45301 246.66148,653.24089 259.55891,650.79529 C 279.93075,650.28935 300.33888,635.74346 305.18750,615.62955 C 305.46719,607.99641 298.84049,602.56177 291.79728,601.67859 C 285.57735,600.14281 283.65082,592.52888 287.04295,587.54610 C 290.02885,577.57249 295.26263,567.46736 293.53125,556.78580 C 289.50563,554.40929 284.68757,554.48753 280.18750,554.97330 z M 419.06250,556.91080 C 403.33416,558.42125 395.87477,576.33505 397.80078,590.30655 C 397.70714,596.51583 401.54623,602.43261 407.71875,603.81705 C 414.44868,609.63371 410.19093,619.82058 412.74683,627.44192 C 413.97246,636.69617 417.44821,649.34795 428.08263,651.04335 C 442.59515,649.14880 447.19070,633.01992 452.36727,621.64492 C 456.31656,610.18193 466.29483,601.46512 478.16961,599.12231 C 486.73201,596.03907 492.67666,585.00849 486.07597,577.24250 C 478.30515,564.82229 462.17441,563.01857 449.21988,559.26496 C 439.36406,556.97832 429.14440,556.59119 419.06250,556.91080 z M 516.28125,556.91080 C 500.68452,558.40993 493.37084,575.89774 494.93120,589.84593 C 494.13855,596.65370 499.52375,603.40117 506.37500,604.09830 C 510.47739,615.21587 508.04092,627.57660 512.49401,638.68962 C 514.63866,646.59566 523.60211,654.71590 531.70391,649.04874 C 548.66256,638.69327 546.35819,613.27602 564.03125,603.37955 C 571.92306,599.63087 582.94376,598.27087 585.63697,588.34403 C 587.71649,576.44416 575.62863,567.41969 565.24451,564.67951 C 549.57741,558.92457 532.99206,556.00518 516.28125,556.91080 z M 373.71875,562.84830 C 348.77765,566.53663 322.71180,580.30793 312.67587,604.55445 C 306.92694,622.28274 321.45300,639.63646 336.79250,646.59594 C 351.13695,653.53533 372.83338,653.42393 381.83003,638.18480 C 388.00946,628.45534 373.00752,620.40974 377.56250,610.84830 C 381.57164,605.17761 378.46521,595.58634 385.89051,591.85587 C 389.38116,588.20313 394.13700,584.04681 395.19732,579.25257 C 395.25661,571.39231 389.70988,564.59756 381.83324,563.37117 C 379.18318,562.71331 376.43445,562.64391 373.71875,562.84830 z M 648.06250,562.91080 C 623.71993,567.97664 598.09224,581.69572 588.97691,606.09145 C 584.90583,627.85478 604.79906,646.47872 624.75017,650.29326 C 638.07651,653.30027 655.77009,648.49681 660.28125,634.37955 C 660.29617,626.41839 653.60757,620.47902 652.90625,612.62955 C 659.51290,607.68755 654.32748,596.54584 662.25000,592.50455 C 669.49996,587.11134 675.82014,575.72260 668.05814,568.06382 C 662.95916,562.87021 654.83746,562.78485 648.06250,562.91080 z M 92.281250,563.91080 C 70.749021,567.68518 50.143075,586.19524 51.531250,609.34830 C 52.753349,631.48975 71.043104,653.10778 94.000000,653.69205 C 111.57692,651.00008 121.68830,630.06819 117.35651,613.93536 C 114.48834,608.38128 107.58953,607.80974 102.46875,605.34830 C 112.46451,603.93178 126.77104,604.06319 130.19931,592.14961 C 133.67461,582.49426 132.43657,567.87335 120.84447,564.69318 C 111.49909,562.07999 101.79542,563.12200 92.281250,563.91080 z M 395.62500,584.87955 C 397.72199,585.50657 395.68507,581.79710 395.62500,584.87955 z "
       id="path6158" />
    <path
       style="fill:#000000;fill-opacity:0.040816311;fill-rule:evenodd;stroke:none;stroke-width:1.0000000pt;stroke-linecap:butt;stroke-linejoin:miter;stroke-opacity:1.0000000;"
       d="M 280.65625,556.97330 C 256.01733,566.42740 242.13673,591.57644 236.06250,615.97330 C 233.52228,622.37828 229.55295,613.74427 230.01203,610.24950 C 227.75448,591.53848 221.88614,569.74154 203.24409,561.14944 C 188.83069,556.99769 175.55590,567.92631 165.13664,576.64916 C 149.30837,591.73168 135.41857,609.89022 128.90625,630.97330 C 127.06311,637.57698 130.93500,648.05636 139.31250,645.25455 C 149.93582,641.98539 160.11392,635.72391 171.68748,637.48580 C 183.69831,637.66804 197.46342,635.94186 207.12500,644.72330 C 218.04141,648.89677 225.61406,636.14979 228.40625,627.34830 C 229.32416,620.40141 236.50267,621.10371 235.47891,628.30710 C 235.65648,641.21911 248.68604,651.92535 261.39422,648.56679 C 280.35335,647.28524 299.32598,633.49854 303.07320,614.41425 C 302.81378,605.90583 293.46027,604.92320 287.64815,601.82811 C 280.94211,597.05818 283.92735,588.16959 286.74040,582.07464 C 289.26317,574.37377 292.58401,566.42385 291.62500,558.16080 C 288.23171,556.28384 284.34680,556.94301 280.65625,556.97330 z M 414.31250,560.06705 C 400.72068,566.21114 396.09229,584.88986 402.09375,597.75455 C 405.64488,601.53954 412.05667,602.49561 412.93750,608.59830 C 414.41221,620.53063 413.53428,633.42777 420.40625,643.97330 C 425.18627,651.82133 435.49796,648.29468 439.78026,641.88667 C 449.49975,629.28418 450.60173,610.32411 465.70676,602.03062 C 472.48150,597.21283 483.59705,597.86520 486.17821,588.29224 C 488.87751,577.87438 477.54080,570.15810 469.00887,566.94733 C 451.47383,561.21198 432.74082,556.53129 414.31250,560.06705 z M 511.56250,560.06705 C 498.56709,565.74472 494.54594,582.48582 497.81785,595.13502 C 498.84116,601.19448 506.97519,600.26110 508.56534,604.49460 C 513.45618,618.24472 508.46456,636.03003 520.30959,646.75662 C 528.88430,653.12310 537.49413,642.42202 541.05181,635.34891 C 547.77547,622.25591 551.93506,604.38343 567.92205,599.67489 C 575.54855,597.39162 586.43831,592.07883 583.30449,582.28096 C 578.72718,568.32773 562.22225,565.88476 550.00521,562.24575 C 537.59543,559.50155 524.09296,557.33406 511.56250,560.06705 z M 373.93750,564.84830 C 349.43425,568.60067 323.78423,582.06310 314.41130,606.20651 C 309.74929,625.31092 327.07196,642.28900 344.19015,647.21075 C 357.34891,651.38521 375.82667,648.62112 381.21875,634.22330 C 381.31131,625.48912 370.85285,617.97800 376.28166,609.02768 C 378.99575,602.49319 377.99310,593.39831 385.28423,589.59369 C 390.14739,585.26314 396.39031,578.23610 390.91783,571.83732 C 387.73517,565.77701 380.18995,564.40870 373.93750,564.84830 z M 639.40625,567.16080 C 618.87503,573.39050 597.93718,586.40554 590.81869,607.65372 C 588.17216,629.37761 609.03805,646.89400 629.23381,648.96255 C 640.60296,650.17726 655.41814,645.30848 658.13335,633.03945 C 656.93234,625.62775 651.51688,619.66348 650.68750,612.06705 C 657.49321,606.45001 652.93498,594.49081 661.74073,590.20608 C 668.65700,585.34595 673.37293,573.45490 664.71875,567.87955 C 657.00391,563.62233 647.48665,564.48067 639.40625,567.16080 z M 92.593750,565.91080 C 71.502661,569.59098 50.977215,588.61166 53.824347,611.32671 C 55.866377,631.81336 73.445987,651.69774 94.804238,651.38248 C 110.72411,647.96301 120.17071,628.13550 114.59375,613.41080 C 108.99297,608.67480 101.28853,607.65512 94.812500,604.44205 C 105.43898,601.83611 119.05412,604.21092 126.75000,594.94205 C 132.17019,585.53395 131.37374,568.15694 118.22186,566.22917 C 109.78450,564.14977 101.13314,565.48491 92.593750,565.91080 z "
       id="path6160" />
    <path
       style="fill:#000000;fill-opacity:0.040816311;fill-rule:evenodd;stroke:none;stroke-width:1.0000000pt;stroke-linecap:butt;stroke-linejoin:miter;stroke-opacity:1.0000000;"
       d="M 281.15625,558.97330 C 257.15693,568.46360 243.85484,593.15075 237.81250,616.97330 C 235.88569,622.98057 228.97765,619.26320 228.59375,614.31705 C 226.06661,595.88770 222.25605,573.75695 204.20660,564.06700 C 190.73755,558.24087 177.50766,569.04019 167.60500,577.23032 C 151.25656,592.81634 136.18917,611.46288 130.46875,633.72330 C 129.50775,639.95244 135.48963,646.61014 141.59981,642.28957 C 152.48346,637.90980 163.91019,633.90072 175.81250,635.47330 C 186.82032,635.47378 199.15313,635.11463 207.96875,642.84830 C 218.93245,645.83310 224.79031,632.79494 227.18750,624.25455 C 229.21369,618.00578 238.63699,620.60398 237.48649,626.94196 C 236.72967,640.02773 250.76707,650.44285 263.13392,646.30029 C 280.58071,644.34442 298.30416,631.30766 300.83314,613.29982 C 298.28528,604.01814 282.77055,606.93068 281.88161,596.12118 C 280.91849,583.61977 290.68272,572.75818 289.62500,560.06705 C 288.30421,557.94670 283.44150,559.25848 281.15625,558.97330 z M 421.31250,561.09830 C 405.19581,561.31285 397.96958,581.78946 403.26681,595.05679 C 406.16725,600.42281 415.32630,601.83016 415.03084,609.40643 C 416.73814,621.45968 415.29140,636.16133 424.60501,645.36691 C 434.28313,649.67615 440.68561,637.90907 444.03125,630.59830 C 449.26474,617.81219 455.26091,603.22304 469.28464,598.01848 C 475.79049,595.52357 485.99943,592.75661 484.33313,583.64937 C 480.54579,570.46068 464.74717,567.75665 453.29387,564.49422 C 442.82967,561.94335 432.11396,560.20985 421.31250,561.09830 z M 512.15625,562.03580 C 499.80790,567.97299 495.66884,585.20427 501.03125,597.00455 C 505.53256,599.60293 511.54958,601.48717 511.54478,607.83444 C 514.84065,620.40014 511.20513,636.52597 522.51482,645.61712 C 530.89394,649.24122 536.98395,638.97093 540.11380,632.62357 C 546.45001,619.41969 551.62144,602.56215 567.21875,597.78580 C 574.26755,595.80459 585.43228,590.03105 580.54840,581.13537 C 574.56084,568.91444 559.23857,567.27496 547.50784,563.79856 C 535.94612,561.20679 523.93287,559.81685 512.15625,562.03580 z M 365.12500,568.69205 C 344.48061,573.95596 323.62613,586.86340 316.27081,607.71786 C 312.86895,627.35472 331.75961,643.25013 349.56250,646.44205 C 360.61935,648.43177 376.02303,644.94526 379.03552,632.79311 C 377.42769,624.78389 369.29495,616.73123 374.43750,608.28580 C 376.84162,600.85484 377.14461,591.44635 384.83211,587.26619 C 389.71625,583.37168 393.62635,576.03648 387.93750,571.03580 C 381.80526,564.97531 372.60177,566.84884 365.12500,568.69205 z M 646.00000,567.53580 C 623.90079,572.76790 600.83866,585.61068 592.78125,608.12955 C 590.76557,632.90272 619.08471,652.01998 641.93750,645.81705 C 649.62456,643.83293 659.43231,635.90961 654.24021,627.34520 C 652.20371,622.12238 648.02401,616.17976 649.18750,610.75455 C 655.29144,604.64356 651.73112,592.81812 660.56250,588.56705 C 667.50354,584.42317 670.99201,570.95258 660.88049,568.57091 C 656.20541,566.55582 650.94218,566.89900 646.00000,567.53580 z M 92.906250,567.91080 C 72.516820,571.47107 52.724007,590.24761 56.004512,612.17344 C 58.425471,631.37852 75.327934,650.21897 95.566195,649.01044 C 109.43963,644.98427 117.26668,628.15354 112.84375,614.69205 C 105.14773,609.42282 95.717304,607.71837 87.437500,603.53580 C 98.432285,600.90068 110.43667,602.08312 120.76576,597.22756 C 130.00375,591.84938 130.44994,575.54593 121.71875,569.44205 C 112.50532,565.88800 102.48747,567.39035 92.906250,567.91080 z "
       id="path6162" />
    <path
       style="fill:#000000;fill-opacity:0.040816311;fill-rule:evenodd;stroke:none;stroke-width:1.0000000pt;stroke-linecap:butt;stroke-linejoin:miter;stroke-opacity:1.0000000;"
       d="M 281.65625,560.97330 C 258.38001,570.55227 245.55879,594.63586 239.59375,617.87955 C 236.01834,621.29434 240.56369,624.28674 239.65556,628.90474 C 240.14488,640.82062 254.02748,648.21278 264.71574,643.94847 C 280.53209,641.59025 295.84682,629.83630 298.71875,613.53580 C 294.57938,605.85237 280.75068,607.19151 279.93750,596.66080 C 278.66318,584.16759 288.20564,573.21776 287.43750,561.00455 C 285.51867,560.65116 283.58761,560.94360 281.65625,560.97330 z M 421.50000,563.09830 C 406.37482,563.69070 399.36327,583.85040 406.25000,595.72330 C 411.88122,599.65367 418.23936,604.47727 417.31990,612.20938 C 418.73656,622.87310 417.78965,635.17298 425.71875,643.59830 C 435.17805,646.32694 439.72714,634.66465 443.03784,627.85376 C 448.44686,613.90673 456.70978,598.77580 472.34281,594.73508 C 477.97612,593.18427 485.57580,587.89313 481.15154,581.37662 C 474.47214,569.91526 459.46470,568.68623 447.86720,565.33459 C 439.23119,563.41363 430.34020,562.55145 421.50000,563.09830 z M 512.81250,563.97330 C 501.87451,569.77486 498.12724,584.56243 502.68750,595.62955 C 508.58629,598.09207 514.07691,602.69700 513.92601,609.59020 C 516.55856,621.07019 513.71867,635.15254 523.53125,643.81705 C 532.24314,645.90233 536.40012,635.20886 539.61892,628.93085 C 545.58342,615.31547 552.56186,599.33817 568.36881,595.19838 C 574.60403,593.62465 583.62812,587.18893 577.62877,580.32766 C 570.23706,569.47755 555.69479,568.46517 544.05175,565.16846 C 533.79152,563.02445 523.19522,562.22313 512.81250,563.97330 z M 189.87500,565.44205 C 171.50804,572.72083 158.41226,588.75298 146.75000,604.06705 C 140.33139,613.74754 134.26098,624.29731 132.40625,635.87955 C 132.77008,641.74941 138.78131,642.61211 142.74620,639.70469 C 154.75785,634.41234 167.81618,632.33669 180.87486,633.51061 C 190.98721,633.16894 201.45911,635.24524 209.71348,641.01335 C 219.87399,641.88434 222.95089,629.80025 225.91833,622.40899 C 230.12739,619.64446 227.16683,617.70373 226.46309,613.64275 C 223.97173,595.94026 220.14135,574.37693 202.44473,565.66733 C 198.37435,564.08127 194.02584,564.27226 189.87500,565.44205 z M 371.37500,569.41080 C 349.19998,573.61683 325.42044,586.49849 318.23863,609.15989 C 316.14863,629.12593 336.69156,644.27124 355.09364,644.89610 C 363.66921,645.23816 375.71721,641.41885 376.57283,631.78052 C 373.83682,623.82474 367.70390,615.10357 372.79568,606.69640 C 374.74720,598.30971 377.06716,589.03398 384.94726,584.28023 C 390.41537,580.37164 389.35831,571.85968 382.76017,570.04385 C 379.17627,568.35451 375.16119,569.08819 371.37500,569.41080 z M 646.34375,569.53580 C 624.93901,574.65208 602.89448,586.95696 594.78125,608.56705 C 593.31201,632.15546 620.69030,650.17481 642.29388,643.48500 C 649.60739,641.75286 657.18905,633.60747 651.57390,626.27973 C 648.30996,619.89969 644.34935,611.56807 650.07949,605.45200 C 651.99834,598.09575 653.16596,589.27914 660.96344,585.65575 C 666.16434,581.75109 667.23631,571.05536 659.13840,570.11533 C 655.03856,568.50574 650.60352,569.31671 646.34375,569.53580 z M 93.250000,569.91080 C 73.647360,573.35412 54.597489,591.71659 58.183858,612.76239 C 60.837287,630.71923 77.013744,648.65738 96.139624,646.58344 C 108.04104,642.35543 114.49651,627.90980 111.06250,616.00455 C 101.46949,610.25944 90.382215,607.80244 80.468750,602.66080 C 93.438747,599.52834 107.27864,600.39992 119.78125,595.47330 C 129.42340,589.52986 127.76182,570.06472 114.93591,569.77253 C 107.74177,568.59336 100.48033,569.66486 93.250000,569.91080 z "
       id="path6164" />
    <path
       style="fill:#000000;fill-opacity:0.040816311;fill-rule:evenodd;stroke:none;stroke-width:1.0000000pt;stroke-linecap:butt;stroke-linejoin:miter;stroke-opacity:1.0000000;"
       d="M 282.18750,562.94205 C 259.38394,572.60006 247.28602,596.46224 241.15625,619.12955 C 239.48538,623.07333 242.53391,628.12341 242.37454,632.59578 C 246.02529,642.58914 258.18202,644.98496 267.20981,641.35376 C 280.85322,638.45514 293.61491,628.03181 296.50000,613.97330 C 291.02902,607.59931 278.32204,607.16166 277.93750,596.66080 C 276.89532,584.79404 284.87883,574.54152 285.37500,562.91080 C 284.31631,562.75351 283.24971,562.94083 282.18750,562.94205 z M 421.78125,565.09830 C 408.08391,565.85889 401.26490,584.70972 408.67972,595.06695 C 415.73671,599.21602 420.47579,606.74596 419.60988,615.05227 C 420.74015,624.13640 420.30982,634.40107 426.78125,641.69205 C 435.80116,642.72195 438.56750,631.44164 442.02899,625.14478 C 447.45167,610.50719 457.56485,596.07634 473.50411,592.08317 C 478.40627,590.87542 483.10908,584.92670 478.21360,580.74281 C 470.16662,570.76441 456.08049,569.76770 444.44249,566.82090 C 436.95388,565.42669 429.40768,564.56317 421.78125,565.09830 z M 520.84375,565.12955 C 508.06283,563.81151 501.03898,578.67434 503.19777,589.63596 C 502.95711,596.37500 511.98038,596.37859 513.86716,602.40636 C 519.20324,613.77278 514.98502,628.11506 522.03125,639.09830 C 526.30889,646.21753 533.23603,638.00674 535.21875,633.25455 C 542.63656,618.23821 548.94957,598.95322 566.80665,593.65518 C 572.03589,592.31216 581.43008,586.77895 575.44241,580.87077 C 566.85741,570.24739 551.95163,569.63245 539.65134,566.42199 C 533.46098,565.23420 527.13302,564.96785 520.84375,565.12955 z M 190.50000,567.34830 C 170.81048,575.70490 156.85453,593.18214 145.10854,610.38998 C 140.20942,618.57926 135.28398,627.55178 134.68750,637.16080 C 138.10815,642.18342 144.21281,635.81445 148.64040,635.42305 C 164.27861,630.15330 181.51624,630.22313 197.57410,633.38203 C 204.03749,633.67688 209.74636,642.26083 215.85217,637.13403 C 221.32193,632.39829 221.99684,624.11313 226.00000,618.72330 C 221.72854,603.63831 221.78517,586.07447 210.23705,574.06409 C 205.20796,568.33475 198.14952,564.89862 190.50000,567.34830 z M 371.59375,571.41080 C 350.20107,575.66573 327.59051,587.68256 320.25000,609.59830 C 318.92507,631.60469 344.85138,647.38173 364.78125,641.53580 C 370.80551,639.97548 377.33182,633.46994 372.62090,627.29603 C 369.36801,620.44523 367.04140,612.18033 371.11979,605.15997 C 372.97603,595.95872 376.92153,586.59047 385.12500,581.37955 C 390.65119,572.21195 377.93747,569.72957 371.59375,571.41080 z M 646.71875,571.53580 C 625.98867,576.58681 603.73105,588.66808 596.79791,610.03566 C 596.63063,633.41240 626.17804,650.26440 646.50000,639.44205 C 651.80969,636.46065 652.70288,629.85188 648.89574,625.32117 C 645.17872,618.69225 643.36437,609.96560 648.48985,603.62749 C 649.97838,595.35374 653.48676,586.94344 661.12500,582.69205 C 664.89025,578.39957 662.77642,571.33262 656.62727,571.56221 C 653.38134,570.70454 650.00837,571.41755 646.71875,571.53580 z M 104.18750,571.31705 C 83.610843,569.92025 61.587245,584.87251 59.825062,606.28563 C 59.331211,625.52334 75.417097,645.92836 95.718750,644.59830 C 106.17088,640.52080 111.91399,628.06081 109.28125,617.34830 C 97.848106,611.25411 85.295758,607.71120 73.750000,601.81705 C 88.848211,598.02782 105.20364,598.95708 119.58326,592.98766 C 127.62861,586.73334 124.00014,570.29334 112.50945,571.56035 C 109.74488,571.11407 106.97243,571.29352 104.18750,571.31705 z "
       id="path6166" />
    <path
       style="fill:#000000;fill-opacity:0.040816311;fill-rule:evenodd;stroke:none;stroke-width:1.0000000pt;stroke-linecap:butt;stroke-linejoin:miter;stroke-opacity:1.0000000;"
       d="M 275.18750,568.91080 C 257.30498,580.99300 247.30728,601.73708 242.68750,622.25455 C 243.74002,628.97797 244.41431,637.51252 252.28189,639.71550 C 262.21158,642.97172 272.92349,638.08976 281.31505,632.91479 C 287.50739,628.48027 292.43202,622.06664 294.25000,614.59830 C 287.75895,609.26057 276.06550,607.04650 275.93750,596.66080 C 274.81841,585.64105 282.45774,574.95800 282.71875,564.94205 C 280.20833,566.26497 277.69792,567.58788 275.18750,568.91080 z M 417.78125,568.03580 C 406.66275,572.89924 403.41233,591.54503 415.09375,597.56705 C 424.97058,607.10118 420.11803,621.71435 424.52679,633.40680 C 424.82590,639.02954 430.68597,641.91169 433.82846,636.33693 C 442.29715,622.56290 446.21546,605.04373 460.72103,595.81006 C 465.71803,590.91696 474.90293,592.07010 478.15625,585.47330 C 475.83852,577.79339 466.47710,574.12478 459.08838,572.28173 C 445.69152,569.03899 431.54686,565.24477 417.78125,568.03580 z M 516.75000,567.31705 C 506.64284,570.17603 502.66715,583.26404 506.06250,592.28580 C 511.49732,595.96084 516.86641,600.30871 517.63746,607.35935 C 520.33365,617.95801 517.69931,630.41750 525.00000,639.44205 C 531.68622,639.87816 533.73364,630.68816 536.47976,625.92043 C 542.94988,611.90954 550.83481,595.91730 566.99241,591.44925 C 570.99073,590.40773 578.63721,585.74258 573.26491,581.54419 C 563.89160,571.49973 548.98533,570.86015 536.42881,568.04358 C 529.92315,567.01910 523.31586,566.98059 516.75000,567.31705 z M 193.53125,568.69205 C 172.25044,576.08607 157.94597,595.32935 145.73317,613.30735 C 141.70020,620.49053 136.97537,628.54026 137.18750,636.78580 C 144.29495,635.38151 151.38268,631.95257 158.83433,630.83159 C 173.48611,628.45572 189.08960,628.61226 203.28125,633.06705 C 207.76823,636.60550 214.72527,638.65717 217.50000,631.94205 C 219.50712,627.13944 222.32029,622.15932 223.65422,617.43548 C 219.38356,601.21081 218.98077,580.87793 203.19161,570.93516 C 200.40277,569.08577 196.83284,568.43114 193.53125,568.69205 z M 371.84375,573.41080 C 351.25979,577.59617 329.61840,589.07345 322.25000,610.03580 C 321.62175,631.91134 349.16300,647.14929 368.09375,637.87955 C 373.37951,635.03237 372.24138,629.48244 369.64472,625.25942 C 365.68170,617.37957 366.85368,608.38739 370.24828,600.60806 C 372.09775,592.10652 377.54221,584.66430 383.86440,579.19831 C 386.41280,572.49418 375.66177,572.66847 371.84375,573.41080 z M 647.09375,573.50455 C 627.09370,578.52472 606.04198,589.80021 598.84375,610.37955 C 599.10664,632.31568 627.36490,648.23530 646.15267,637.05782 C 653.49606,631.43889 644.26916,624.15333 643.96167,617.50283 C 641.42765,609.65215 647.11925,603.06899 648.57843,595.77163 C 650.52612,589.22978 655.40600,584.19028 660.43750,580.06705 C 663.33593,571.19904 651.96690,573.57171 647.09375,573.50455 z M 104.25000,573.31705 C 84.208952,571.99603 62.061697,587.15420 62.001397,608.40458 C 62.411617,625.84346 77.881357,644.43713 96.199414,642.10512 C 104.70990,638.09323 109.24800,627.77241 107.46875,618.69205 C 94.295470,612.21499 80.304374,607.61903 67.187500,601.00455 C 84.123688,596.76855 101.91451,597.21419 118.40625,591.28580 C 125.40771,585.66231 121.11038,571.67535 111.34684,573.48855 C 108.98611,573.18462 106.62214,573.25397 104.25000,573.31705 z "
       id="path6168" />
    <path
       style="fill:#000000;fill-opacity:0.040816311;fill-rule:evenodd;stroke:none;stroke-width:1.0000000pt;stroke-linecap:butt;stroke-linejoin:miter;stroke-opacity:1.0000000;"
       d="M 276.25000,570.62955 C 258.92675,582.71697 248.49830,603.03384 244.87988,623.36648 C 245.14639,630.52787 248.77495,639.07371 257.21721,638.62252 C 271.69987,638.71652 287.36128,629.77545 291.84375,615.44205 C 284.46419,610.56811 273.20653,606.42368 273.92992,595.66083 C 273.45145,586.15995 278.42593,577.59638 280.31250,568.50455 C 278.95833,569.21288 277.60417,569.92122 276.25000,570.62955 z M 423.06250,569.28580 C 409.73884,569.12653 404.65654,590.33839 416.65625,596.31705 C 427.67889,607.11212 421.25356,624.36573 428.12500,636.75455 C 433.90398,637.90519 434.51238,628.18562 437.72543,624.67283 C 444.17603,610.20089 452.96089,593.96458 469.43750,589.41080 C 477.43537,588.32227 476.15262,581.41653 469.83731,578.70403 C 456.64515,572.27014 441.58146,569.87468 427.00098,569.11131 C 425.68815,569.16946 424.37533,569.22764 423.06250,569.28580 z M 517.21875,569.31705 C 508.51451,571.98529 504.25790,584.21555 508.62124,591.65522 C 517.01758,596.41166 520.40049,605.74547 520.82601,614.94033 C 521.67333,622.47604 521.41420,630.87498 526.00000,637.31705 C 532.75862,634.40686 533.40293,625.28620 537.33917,619.65355 C 543.30951,606.08989 553.13394,592.75245 568.13951,588.82754 C 574.40643,587.36626 573.09577,581.97577 568.15625,579.69205 C 557.20676,572.66535 543.66561,571.44033 531.08173,569.56650 C 526.47240,568.91219 521.85271,569.29384 517.21875,569.31705 z M 186.90625,573.72330 C 168.19717,583.97241 155.14977,601.89423 144.40625,619.81705 C 143.03677,623.44913 136.90180,633.27353 141.45194,633.47818 C 161.77121,626.44899 184.69488,624.82615 205.16863,631.86506 C 208.97013,635.41197 215.62181,635.05026 216.58554,629.12495 C 219.24249,623.16451 223.31124,617.02987 220.06452,610.44796 C 216.85327,595.89602 214.20112,576.91408 198.15625,571.00455 C 193.96248,569.83540 190.64904,572.22960 186.90625,573.72330 z M 372.06250,575.41080 C 352.28404,579.49444 331.69749,590.50647 324.28125,610.41080 C 324.26433,630.99651 350.92729,645.38055 368.40625,635.22330 C 372.28164,628.74334 364.02102,622.37337 365.33558,615.32539 C 365.34776,605.28076 369.17035,595.19811 374.42711,586.74697 C 375.22560,582.83368 385.57186,578.73280 380.25028,575.62457 C 377.56864,575.03010 374.78725,575.04255 372.06250,575.41080 z M 96.875000,575.56705 C 83.491983,577.57033 70.350781,586.10602 65.750000,599.22330 C 82.763560,595.15620 100.60933,595.17742 117.25000,589.53580 C 123.05579,584.57203 118.21113,573.27565 110.31275,575.45098 C 105.82994,575.23123 101.35533,575.36688 96.875000,575.56705 z M 647.34375,575.50455 C 628.19778,580.41958 608.11593,591.10343 600.90625,610.69205 C 601.67210,630.84416 627.25641,645.22890 644.87500,635.47330 C 650.44227,629.77131 641.43804,623.38263 641.79562,616.90066 C 640.24274,607.52272 646.06959,598.86545 648.75000,590.16080 C 650.99902,585.07186 656.72208,582.13392 658.84375,577.44205 C 657.04173,573.62212 650.78586,575.97002 647.34375,575.50455 z M 64.281250,604.66080 C 62.407646,622.12078 77.109526,641.61503 95.625000,640.09830 C 102.82316,636.51827 106.75803,627.85641 105.59375,620.03580 C 92.156645,613.66307 78.096087,608.72984 64.781250,602.09830 C 64.614583,602.95247 64.447917,603.80663 64.281250,604.66080 z "
       id="path6170" />
    <path
       style="fill:#000000;fill-opacity:0.040816311;fill-rule:evenodd;stroke:none;stroke-width:1.0000000pt;stroke-linecap:butt;stroke-linejoin:miter;stroke-opacity:1.0000000;"
       d="M 423.31250,571.28580 C 411.46070,571.44441 407.68173,589.99153 418.25000,595.09830 C 428.92144,605.70494 423.75916,622.26757 429.53125,634.72330 C 437.64897,623.31669 441.30979,608.43166 451.63749,598.23908 C 457.05538,592.02064 464.74832,588.69981 472.34375,586.19205 C 474.03881,580.07761 464.38702,579.42512 460.49303,577.08565 C 448.58327,573.18714 435.84903,571.06802 423.31250,571.28580 z M 517.65625,571.31705 C 509.39274,574.07970 504.95971,588.18917 513.62691,592.88534 C 525.13112,602.90011 521.32373,619.36913 525.70447,632.33281 C 528.41961,637.61256 531.57683,626.07263 533.03125,623.53580 C 540.06865,608.42854 549.59326,591.91814 566.80617,587.17704 C 574.33846,585.87128 566.45311,580.21350 563.06250,579.12955 C 548.86972,573.26975 532.97373,570.92720 517.65625,571.31705 z M 271.50000,576.94205 C 258.19400,589.24615 249.43009,606.55448 247.05736,624.39932 C 247.03343,631.36736 252.64103,638.68483 260.24294,636.42379 C 272.47682,635.45684 284.84969,628.05144 289.31250,616.25455 C 280.84438,611.57835 269.90001,604.88492 272.08953,593.51034 C 272.11451,586.19364 275.18259,579.42985 277.12500,572.50455 C 275.25000,573.98372 273.37500,575.46288 271.50000,576.94205 z M 193.06250,573.25455 C 170.91545,582.58313 156.28929,603.42144 144.85570,623.64343 C 140.29628,630.48767 142.87122,632.19098 149.72471,628.93735 C 169.39391,623.92323 191.26863,623.57734 209.96567,631.86421 C 215.68086,632.55084 215.52362,624.58330 217.98587,620.98680 C 221.00643,613.53437 216.16887,605.99202 215.33063,598.53979 C 212.85922,587.85224 207.35027,574.66870 195.25000,572.75455 C 194.52083,572.92122 193.79167,573.08788 193.06250,573.25455 z M 372.34375,577.41080 C 353.38820,581.40231 333.73426,591.86692 326.31250,610.78580 C 326.91851,629.42990 350.55119,642.31782 366.81250,633.75455 C 368.65352,626.73000 361.19333,620.49141 363.52632,613.13790 C 364.29110,601.81048 368.64137,590.34970 375.83369,581.64438 C 382.34720,576.85462 378.52090,576.92675 372.34375,577.41080 z M 647.62500,577.50455 C 629.30105,582.27142 610.22122,592.45531 602.96875,611.00455 C 604.36718,629.40248 627.06298,642.10630 643.53125,633.91080 C 646.90859,627.84940 638.72593,622.54683 639.71000,616.06959 C 639.12262,605.96713 644.07473,596.34851 648.14018,587.41348 C 649.25624,583.86004 657.32193,579.70167 655.19597,577.43721 C 652.69557,576.95636 650.14577,577.51298 647.62500,577.50455 z M 110.46875,577.44205 C 96.783989,576.15889 81.781546,579.63076 72.886641,590.85273 C 66.043315,597.45765 72.204622,596.60663 78.250000,594.81705 C 91.081590,592.70973 104.87983,592.08922 116.72295,586.97731 C 119.71274,582.91605 115.78325,575.76433 110.46875,577.44205 z M 66.343750,610.94205 C 67.980264,625.13659 80.893969,640.06740 95.978639,637.54619 C 101.22610,634.10653 104.08189,627.54890 103.59375,621.34830 C 91.092079,615.96885 78.702343,610.49857 66.281250,604.94205 C 66.302083,606.94205 66.322917,608.94205 66.343750,610.94205 z "
       id="path6172" />
    <path
       style="fill:#000000;fill-opacity:0.040816311;fill-rule:evenodd;stroke:none;stroke-width:1.0000000pt;stroke-linecap:butt;stroke-linejoin:miter;stroke-opacity:1.0000000;"
       d="M 420.03125,574.00455 C 412.52638,577.77092 412.03610,590.13268 419.81250,593.87955 C 429.30919,603.55566 426.91170,617.98413 429.96875,630.06705 C 438.96293,615.05188 444.88335,595.87528 462.15479,588.15595 C 464.75737,586.21238 474.54210,585.05829 467.53125,581.97330 C 452.64450,576.11260 436.05984,571.95298 420.03125,574.00455 z M 515.87500,574.53580 C 510.09426,578.78698 508.97569,588.49505 515.76556,592.27652 C 526.42456,602.22385 523.62162,618.01301 527.37500,630.78580 C 535.50623,613.91461 543.84968,593.69371 562.81134,586.55122 C 571.17190,585.64045 564.30311,580.98608 559.56943,580.05987 C 546.16949,575.12917 531.37864,572.54768 517.27423,573.78827 C 516.98022,573.94531 516.04740,574.44369 515.87500,574.53580 z M 193.78125,575.12955 C 170.77785,585.24123 156.09133,607.05302 144.68750,628.47330 C 165.79398,621.84085 189.61180,621.06930 210.28125,629.84830 C 214.68297,628.36316 214.80936,621.61951 216.81250,617.81705 C 216.39170,608.02571 213.23013,598.32213 210.14403,589.04368 C 207.34844,582.43575 201.72519,574.54726 193.78125,575.12955 z M 272.93750,578.34830 C 259.98191,590.59163 250.79784,607.56209 249.27681,625.36265 C 249.16396,632.59069 256.60767,636.62008 262.93773,634.01176 C 272.83709,632.42194 282.52051,626.38161 286.71875,617.03580 C 277.65370,612.30016 267.52615,603.78988 270.19211,592.32190 C 270.20179,587.70169 272.34599,581.60024 272.93750,578.34830 z M 110.71875,579.41080 C 96.881538,578.21757 81.345952,581.88263 73.031250,593.91080 C 87.072150,590.56429 102.60688,591.20771 115.56250,584.81705 C 116.18234,582.05991 113.94869,578.24468 110.71875,579.41080 z M 372.65625,579.41080 C 354.48587,583.21337 335.83578,593.23987 328.37500,611.12955 C 329.66636,627.78377 349.89000,639.07745 364.93750,632.37955 C 364.99723,625.04793 358.88333,618.37506 361.84946,610.80649 C 363.08584,599.28859 367.63001,587.85183 375.46875,579.25455 C 374.53125,579.30663 373.59375,579.35872 372.65625,579.41080 z M 647.90625,579.50455 C 630.43006,584.11268 612.37185,593.78854 605.06250,611.25455 C 606.91912,627.79284 626.75602,639.08678 641.93750,632.31705 C 642.81855,625.96117 635.83669,620.69977 637.85234,613.94652 C 638.27719,602.97526 642.95673,592.39829 648.62500,583.19205 C 652.12653,579.87205 654.53432,578.65076 647.90625,579.50455 z M 68.343750,610.66080 C 69.963108,623.63454 81.105700,637.12638 95.156250,635.56705 C 98.851480,632.84652 103.13608,626.13374 100.61571,622.22733 C 89.847972,617.49682 79.080236,612.76631 68.312500,608.03580 C 68.322917,608.91080 68.333333,609.78580 68.343750,610.66080 z "
       id="path6174" />
    <path
       style="fill:#000000;fill-opacity:0.040816311;fill-rule:evenodd;stroke:none;stroke-width:1.0000000pt;stroke-linecap:butt;stroke-linejoin:miter;stroke-opacity:1.0000000;"
       d="M 279.75000,553.00455 C 255.43869,561.61107 240.21260,585.50961 233.90625,609.53580 C 232.01668,590.97515 225.85965,570.29559 209.43161,559.55432 C 198.21556,551.19626 184.14884,558.29192 173.78125,564.53580 C 155.60223,577.27247 141.19255,595.13896 130.71948,614.58556 C 126.06277,624.13442 120.28313,637.73384 128.77413,646.80737 C 137.00005,654.55286 147.48783,645.64034 155.98825,643.07722 C 164.82556,640.06138 174.50086,642.20269 183.71761,641.45855 C 190.46490,641.66045 197.76210,641.74337 202.87574,646.70608 C 208.80679,651.64676 217.54479,650.68650 222.37265,644.70985 C 226.92290,641.03465 229.94310,635.66779 231.71875,630.16080 C 232.76892,642.63423 243.45239,653.99428 256.48987,652.94763 C 278.02485,653.84439 299.74198,639.24922 306.72848,618.86217 C 309.02869,610.14830 302.51088,600.92727 293.51189,600.23815 C 288.84942,599.34548 285.37336,594.48004 288.27300,590.14571 C 291.43689,578.81408 297.99664,567.57644 295.40625,555.44205 C 290.57061,552.38753 285.25385,552.34806 279.75000,553.00455 z M 418.87500,554.91080 C 407.22413,555.65274 398.86867,566.11350 396.68750,576.94205 C 396.92584,565.04954 383.69253,559.68314 373.53130,560.85772 C 353.41591,563.56288 333.50083,573.06964 319.99375,588.49205 C 312.68234,596.92612 306.98536,607.87585 310.06250,619.28580 C 316.69249,643.85261 346.67724,659.64537 370.56250,650.41080 C 379.44450,646.79194 389.14943,636.98213 383.81250,626.84830 C 381.91386,621.45637 375.11419,615.14897 380.65625,610.19205 C 383.11011,604.60940 380.25732,597.43517 386.62500,593.97330 C 390.03875,591.19151 394.53995,585.76331 395.78125,583.19205 C 395.22387,590.98183 395.64403,600.85635 403.96868,604.52119 C 411.60743,605.71958 408.95934,614.93400 409.80344,620.55616 C 411.28873,632.70345 412.94496,649.01755 426.78125,653.25455 C 441.47038,652.92539 447.80118,637.67454 452.62500,626.12955 C 456.23252,615.13564 463.91464,604.38092 475.92078,602.02072 C 485.53230,599.64856 495.04124,588.93075 489.37263,578.95024 C 483.31079,564.58805 466.02772,561.85627 452.69960,557.93344 C 441.67250,555.11002 430.21827,554.44169 418.87500,554.91080 z M 516.00000,554.91080 C 499.82815,556.17245 491.43835,574.13338 493.00000,588.72330 C 491.74259,596.27539 497.04043,604.56587 504.78125,605.75455 C 508.30055,612.79278 505.79416,621.26737 508.12166,628.77777 C 509.22854,638.66251 513.52089,651.01835 524.50000,653.16080 C 539.28789,652.49076 545.18833,636.77561 550.14305,625.21003 C 553.67104,614.49753 561.45595,604.33409 573.04578,602.02072 C 582.65730,599.64856 592.16624,588.93075 586.49763,578.95024 C 580.43579,564.58805 563.15272,561.85627 549.82460,557.93344 C 538.79747,555.11002 527.34327,554.44169 516.00000,554.91080 z M 647.84375,560.91080 C 622.83474,565.93887 597.16348,579.94246 587.12500,604.56705 C 582.31996,624.51089 598.11757,643.38620 616.13711,649.78074 C 631.44681,656.49949 653.02621,653.64348 661.50000,637.84830 C 665.01672,628.75939 656.03494,621.68664 655.09375,613.22330 C 661.62491,608.38574 655.87494,598.08698 663.46241,594.07631 C 670.44483,588.61532 676.74318,579.56302 672.25000,570.53580 C 667.97010,561.51372 656.64226,560.27885 647.84375,560.91080 z M 92.000000,561.91080 C 71.043105,565.70889 50.468617,582.42114 49.551935,604.84809 C 48.013294,629.76023 68.533307,655.34401 94.156250,655.72330 C 112.74675,653.33307 122.59563,632.34436 120.15625,615.31705 C 118.83796,610.78241 114.93491,607.37221 110.40625,606.25455 C 120.32623,606.13159 131.84909,600.99996 132.72788,589.86158 C 136.45575,579.08529 132.11964,563.57873 119.17152,562.20205 C 110.28391,560.30166 100.97065,560.79861 92.000000,561.91080 z "
       id="path6053" />
  </g>
  <g
     id="g5323"
     transform="translate(4.248289,-10.24061)"
     inkscape:export-filename="/home/trasher/Bureau/g48px.png"
     inkscape:export-xdpi="6.2309327"
     inkscape:export-ydpi="6.2309327">
    <path
       style="fill:#ffffff;fill-opacity:1.0000000;fill-rule:evenodd;stroke:none;stroke-width:1.0000000pt;stroke-linecap:butt;stroke-linejoin:miter;stroke-opacity:1.0000000;"
       d="M 490.34142,568.06131 L 499.70427,563.83292 L 521.14821,563.22887 L 560.10974,575.00794 L 569.77462,588.59917 L 557.69353,604.90864 L 535.94755,613.96947 L 517.22186,653.98809 L 502.42252,649.45768 L 497.28805,630.27894 L 495.47589,605.81473 L 482.48871,597.96202 L 483.39479,579.53835 L 487.01912,571.68564 L 490.94548,567.75928"
       id="path4688" />
    <path
       style="fill:#ffffff;fill-opacity:1.0000000;fill-rule:evenodd;stroke:none;stroke-width:1.0000000pt;stroke-linecap:butt;stroke-linejoin:miter;stroke-opacity:1.0000000;"
       d="M 393.26080,568.27476 L 402.62365,564.04637 L 424.06759,563.44232 L 463.02912,575.22139 L 472.69400,588.81262 L 460.61291,605.12209 L 438.86693,614.18292 L 420.14124,654.20154 L 405.34190,649.67113 L 400.20743,630.49239 L 398.39527,606.02818 L 385.40809,598.17547 L 386.31417,579.75180 L 389.93850,571.89909 L 393.86486,567.97273"
       id="path5311" />
    <path
       style="fill:#ffffff;fill-opacity:1.0000000;fill-rule:evenodd;stroke:none;stroke-width:1.0000000pt;stroke-linecap:butt;stroke-linejoin:miter;stroke-opacity:1.0000000;"
       d="M 644.68457,570.46814 L 653.54856,576.26382 L 652.18487,591.26441 L 640.25258,603.53762 L 638.88889,614.10622 L 636.16151,620.92468 L 643.66180,637.62988 L 639.22981,647.17571 L 621.16092,655.01693 L 600.36464,649.22125 L 581.95482,633.87973 L 575.81821,621.94744 L 576.50006,609.33331 L 580.93205,600.46932 L 588.09143,591.94626 L 595.59172,585.80965 L 605.81940,579.33212 L 618.43353,573.53644 L 629.34306,570.12721 L 638.20704,568.76352 L 644.68457,570.46814 z "
       id="path5313" />
    <path
       style="fill:#ffffff;fill-opacity:1.0000000;fill-rule:evenodd;stroke:none;stroke-width:1.0000000pt;stroke-linecap:butt;stroke-linejoin:miter;stroke-opacity:1.0000000;"
       d="M 367.24835,570.82883 L 376.11234,576.62451 L 374.74865,591.62510 L 362.81636,603.89831 L 361.45267,614.46691 L 358.72529,621.28537 L 366.22558,637.99057 L 361.79359,647.53640 L 343.72470,655.37762 L 322.92842,649.58194 L 304.51860,634.24042 L 298.38199,622.30813 L 299.06384,609.69400 L 303.49583,600.83001 L 310.65521,592.30695 L 318.15550,586.17034 L 328.38318,579.69281 L 340.99731,573.89713 L 351.90684,570.48790 L 360.77082,569.12421 L 367.24835,570.82883 z "
       id="path5314" />
    <path
       style="fill:#ffffff;fill-opacity:1.0000000;fill-rule:evenodd;stroke:none;stroke-width:1.0000000pt;stroke-linecap:butt;stroke-linejoin:miter;stroke-opacity:1.0000000;"
       d="M 273.76082,561.77461 L 277.85189,567.22937 L 271.54482,588.70749 L 269.32883,604.04901 L 285.69311,612.91299 L 287.73865,622.79975 L 272.05621,645.98248 L 237.62303,654.16463 L 222.96336,642.23234 L 220.91782,629.61820 L 223.64520,612.23115 L 232.16827,591.26441 L 242.39594,577.62751 L 249.21440,570.46814 L 257.05561,564.67245 L 266.60145,561.26323 L 273.76082,561.77461 z "
       id="path5315" />
    <path
       style="fill:#ffffff;fill-opacity:1.0000000;fill-rule:evenodd;stroke:none;stroke-width:1.0000000pt;stroke-linecap:butt;stroke-linejoin:miter;stroke-opacity:1.0000000;"
       d="M 81.312500,569.62500 L 68.000000,573.03125 L 57.437500,578.46875 L 47.562500,587.34375 L 40.750000,597.90625 L 38.343750,611.21875 L 43.468750,632.00000 L 58.125000,649.71875 L 73.468750,656.21875 L 89.843750,652.81250 L 100.40625,635.40625 L 100.40625,619.06250 L 91.875000,613.59375 L 74.500000,613.93750 L 77.906250,609.84375 L 104.50000,606.78125 L 113.87500,596.87500 L 113.68750,577.81250 L 104.84375,570.62500 L 95.812500,569.62500 L 81.312500,569.62500 z M 69.718750,619.90625 L 79.937500,621.93750 L 77.906250,625.34375 L 73.125000,627.40625 L 69.718750,619.90625 z "
       id="path5320" />
    <path
       style="fill:#ffffff;fill-opacity:1.0000000;fill-rule:evenodd;stroke:none;stroke-width:1.0000000pt;stroke-linecap:butt;stroke-linejoin:miter;stroke-opacity:1.0000000;"
       d="M 183.25000,564.15625 L 175.75000,564.84375 L 165.84375,569.28125 L 157.34375,575.06250 L 146.78125,584.28125 L 132.09375,600.31250 L 120.53125,618.71875 L 115.06250,632.34375 L 114.03125,643.93750 L 122.21875,651.09375 L 139.59375,643.25000 L 159.90625,640.53125 L 185.12500,643.25000 L 194.65625,650.40625 L 205.25000,648.03125 L 215.81250,627.21875 L 212.06250,598.59375 L 200.46875,573.71875 L 188.87500,565.53125 L 183.25000,564.15625 z M 161.59375,625.53125 L 172.00000,626.90625 L 174.90625,633.03125 L 153.40625,633.03125 L 161.59375,625.53125 z "
       id="path5316" />
    <path
       style="font-size:112.00000;font-style:normal;font-variant:normal;font-weight:normal;font-stretch:normal;fill:#000000;fill-opacity:1.0000000;stroke:none;stroke-width:1.0000000pt;stroke-linecap:butt;stroke-linejoin:miter;stroke-opacity:1.0000000;font-family:Got No Heart;text-anchor:start;writing-mode:lr;"
       d="M 619.89663,657.18240 C 609.14458,657.18239 598.95259,653.41173 589.32063,645.87040 C 579.09128,637.73175 573.97662,628.43576 573.97663,617.98240 C 573.97662,609.69444 577.97128,601.48112 585.96063,593.34240 C 593.05393,586.09980 601.97659,580.05180 612.72863,575.19840 C 623.10724,570.49448 632.29123,568.14248 640.28063,568.14240 C 644.90988,568.14248 648.97921,569.41181 652.48863,571.95040 C 656.37120,574.78781 658.31253,578.40914 658.31263,582.81440 C 658.31253,586.24913 656.89387,589.64646 654.05663,593.00640 C 652.56321,594.79846 649.98721,597.18779 646.32863,600.17440 C 643.56588,602.48911 642.18455,604.01978 642.18463,604.76640 C 642.18455,605.66244 642.55788,606.70778 643.30463,607.90240 C 644.05122,609.09711 644.42455,610.47844 644.42463,612.04640 C 644.42455,613.09177 643.45388,614.24910 641.51263,615.51840 C 639.57122,616.78777 638.60055,618.24377 638.60063,619.88640 C 638.60055,621.15576 639.94455,623.84376 642.63263,627.95040 C 645.39521,631.98242 646.77655,635.49175 646.77663,638.47840 C 646.77655,644.30241 643.64055,649.00640 637.36863,652.59040 C 631.99256,655.65173 626.16857,657.18239 619.89663,657.18240 M 640.50463,636.79840 C 640.50455,634.25975 639.12322,631.08642 636.36063,627.27840 C 633.59789,623.47043 632.21656,620.33443 632.21663,617.87040 C 632.21656,613.98777 634.15789,611.11311 638.04063,609.24640 C 636.54722,607.67844 635.80056,606.07311 635.80063,604.43040 C 635.80056,601.59312 637.21922,598.90512 640.05663,596.36640 C 642.59522,594.27579 645.17121,592.18513 647.78463,590.09440 C 650.54721,587.48113 651.92854,584.60647 651.92863,581.47040 C 651.92854,578.11047 650.32321,575.34781 647.11263,573.18240 C 644.34988,571.31581 641.17655,570.38248 637.59263,570.38240 C 630.57390,570.38248 622.28590,572.47314 612.72863,576.65440 C 602.79792,581.13447 594.54727,586.58513 587.97663,593.00640 C 580.50995,600.32378 576.77662,607.60378 576.77663,614.84640 C 576.77662,624.25443 581.55528,632.65442 591.11263,640.04640 C 600.14726,646.99040 609.48058,650.46240 619.11263,650.46240 C 624.04057,650.46240 628.59523,649.41707 632.77663,647.32640 C 637.92856,644.71307 640.50455,641.20374 640.50463,636.79840 M 512.01963,657.29440 C 506.71826,657.29439 502.61159,654.12106 499.69963,647.77440 C 497.60893,642.99574 496.15293,636.31308 495.33163,627.72640 C 494.88360,621.82776 494.47293,615.96643 494.09963,610.14240 C 491.56094,609.39577 489.05961,608.61178 486.59563,607.79040 C 484.57961,607.04378 483.16095,605.84911 482.33963,604.20640 C 481.59295,602.48911 481.21961,599.46512 481.21963,595.13440 C 481.21961,583.85980 483.08628,575.72114 486.81963,570.71840 C 491.15027,564.96915 498.61693,562.09449 509.21963,562.09440 C 521.09157,562.09449 533.59823,564.14782 546.73963,568.25440 C 564.06220,573.70514 572.72352,580.94780 572.72363,589.98240 C 572.72352,595.88112 570.48353,600.17445 566.00363,602.86240 C 561.29953,604.65445 556.59554,606.48378 551.89163,608.35040 C 545.91822,610.88911 541.69955,614.58510 539.23563,619.43840 C 537.21956,624.29176 535.16623,629.14509 533.07563,633.99840 C 530.08890,641.01708 527.21424,646.28107 524.45163,649.79040 C 520.56891,654.79306 516.42491,657.29439 512.01963,657.29440 M 566.33963,588.86240 C 566.33953,581.17180 558.01420,574.89981 541.36363,570.04640 C 528.59557,566.23848 516.94758,564.33449 506.41963,564.33440 C 497.38493,564.33449 491.15027,566.91048 487.71563,572.06240 C 484.87828,576.24381 483.45961,583.41180 483.45963,593.56640 C 483.45961,596.85179 484.95294,599.31578 487.93963,600.95840 C 490.85161,602.15312 493.76360,603.38511 496.67563,604.65440 C 497.04893,610.03044 497.42227,615.40644 497.79563,620.78240 C 498.46760,629.36909 499.66226,636.05175 501.37963,640.83040 C 503.69426,647.32640 506.97959,650.57440 511.23563,650.57440 C 515.19291,650.57440 519.00091,647.10240 522.65963,640.15840 C 525.57157,633.36375 528.52090,626.53176 531.50763,619.66240 C 535.01689,611.59844 538.33956,606.70778 541.47563,604.99040 C 542.89422,604.24378 546.17955,603.08645 551.33163,601.51840 C 556.11021,600.17445 559.54487,598.75579 561.63563,597.26240 C 564.77153,595.17179 566.33953,592.37179 566.33963,588.86240 M 414.89463,657.29440 C 409.59326,657.29439 405.48659,654.12106 402.57463,647.77440 C 400.48393,642.99574 399.02793,636.31308 398.20663,627.72640 C 397.75860,621.82776 397.34793,615.96643 396.97463,610.14240 C 394.43594,609.39577 391.93461,608.61178 389.47063,607.79040 C 387.45461,607.04378 386.03595,605.84911 385.21463,604.20640 C 384.46795,602.48911 384.09461,599.46512 384.09463,595.13440 C 384.09461,583.85980 385.96128,575.72114 389.69463,570.71840 C 394.02527,564.96915 401.49193,562.09449 412.09463,562.09440 C 423.96657,562.09449 436.47323,564.14782 449.61463,568.25440 C 466.93720,573.70514 475.59852,580.94780 475.59863,589.98240 C 475.59852,595.88112 473.35853,600.17445 468.87863,602.86240 C 464.17453,604.65445 459.47054,606.48378 454.76663,608.35040 C 448.79322,610.88911 444.57455,614.58510 442.11063,619.43840 C 440.09456,624.29176 438.04123,629.14509 435.95063,633.99840 C 432.96390,641.01708 430.08924,646.28107 427.32663,649.79040 C 423.44391,654.79306 419.29991,657.29439 414.89463,657.29440 M 469.21463,588.86240 C 469.21453,581.17180 460.88920,574.89981 444.23863,570.04640 C 431.47057,566.23848 419.82258,564.33449 409.29463,564.33440 C 400.25993,564.33449 394.02527,566.91048 390.59063,572.06240 C 387.75328,576.24381 386.33461,583.41180 386.33463,593.56640 C 386.33461,596.85179 387.82794,599.31578 390.81463,600.95840 C 393.72661,602.15312 396.63860,603.38511 399.55063,604.65440 C 399.92393,610.03044 400.29727,615.40644 400.67063,620.78240 C 401.34260,629.36909 402.53726,636.05175 404.25463,640.83040 C 406.56926,647.32640 409.85459,650.57440 414.11063,650.57440 C 418.06791,650.57440 421.87591,647.10240 425.53463,640.15840 C 428.44657,633.36375 431.39590,626.53176 434.38263,619.66240 C 437.89189,611.59844 441.21456,606.70778 444.35063,604.99040 C 445.76922,604.24378 449.05455,603.08645 454.20663,601.51840 C 458.98521,600.17445 462.41987,598.75579 464.51063,597.26240 C 467.64653,595.17179 469.21453,592.37179 469.21463,588.86240 M 342.95913,657.18240 C 332.20708,657.18239 322.01509,653.41173 312.38313,645.87040 C 302.15378,637.73175 297.03912,628.43576 297.03913,617.98240 C 297.03912,609.69444 301.03378,601.48112 309.02313,593.34240 C 316.11643,586.09980 325.03909,580.05180 335.79113,575.19840 C 346.16974,570.49448 355.35373,568.14248 363.34313,568.14240 C 367.97238,568.14248 372.04171,569.41181 375.55113,571.95040 C 379.43370,574.78781 381.37503,578.40914 381.37513,582.81440 C 381.37503,586.24913 379.95637,589.64646 377.11913,593.00640 C 375.62571,594.79846 373.04971,597.18779 369.39113,600.17440 C 366.62838,602.48911 365.24705,604.01978 365.24713,604.76640 C 365.24705,605.66244 365.62038,606.70778 366.36713,607.90240 C 367.11372,609.09711 367.48705,610.47844 367.48713,612.04640 C 367.48705,613.09177 366.51638,614.24910 364.57513,615.51840 C 362.63372,616.78777 361.66305,618.24377 361.66313,619.88640 C 361.66305,621.15576 363.00705,623.84376 365.69513,627.95040 C 368.45771,631.98242 369.83905,635.49175 369.83913,638.47840 C 369.83905,644.30241 366.70305,649.00640 360.43113,652.59040 C 355.05506,655.65173 349.23107,657.18239 342.95913,657.18240 M 363.56713,636.79840 C 363.56705,634.25975 362.18572,631.08642 359.42313,627.27840 C 356.66039,623.47043 355.27906,620.33443 355.27913,617.87040 C 355.27906,613.98777 357.22039,611.11311 361.10313,609.24640 C 359.60972,607.67844 358.86306,606.07311 358.86313,604.43040 C 358.86306,601.59312 360.28172,598.90512 363.11913,596.36640 C 365.65772,594.27579 368.23371,592.18513 370.84713,590.09440 C 373.60971,587.48113 374.99104,584.60647 374.99113,581.47040 C 374.99104,578.11047 373.38571,575.34781 370.17513,573.18240 C 367.41238,571.31581 364.23905,570.38248 360.65513,570.38240 C 353.63640,570.38248 345.34840,572.47314 335.79113,576.65440 C 325.86042,581.13447 317.60977,586.58513 311.03913,593.00640 C 303.57245,600.32378 299.83912,607.60378 299.83913,614.84640 C 299.83912,624.25443 304.61778,632.65442 314.17513,640.04640 C 323.20976,646.99040 332.54308,650.46240 342.17513,650.46240 C 347.10307,650.46240 351.65773,649.41707 355.83913,647.32640 C 360.99106,644.71307 363.56705,641.20374 363.56713,636.79840 M 243.66763,657.40640 C 235.67827,657.40639 229.59295,654.94240 225.41163,650.01440 C 221.52896,645.38507 219.58762,639.00108 219.58763,630.86240 C 219.58762,622.12643 222.01429,612.23310 226.86763,601.18240 C 231.94495,589.68379 238.29161,580.20114 245.90763,572.73440 C 254.49426,564.22249 263.30491,559.96649 272.33963,559.96640 C 278.08890,559.96649 280.96356,562.80382 280.96363,568.47840 C 280.96356,572.21181 279.35823,577.66247 276.14763,584.83040 C 272.93690,591.92379 271.33157,597.26245 271.33163,600.84640 C 271.33157,603.83311 273.08624,605.92378 276.59563,607.11840 C 279.80623,608.16378 283.05423,609.17177 286.33963,610.14240 C 289.84889,611.85977 291.60355,614.88377 291.60363,619.21440 C 291.60355,629.21975 286.00356,638.25441 274.80363,646.31840 C 264.49958,653.71040 254.12092,657.40639 243.66763,657.40640 M 285.21963,618.54240 C 285.21956,614.88377 283.46489,612.38244 279.95563,611.03840 C 276.67023,610.06777 273.38490,609.13444 270.09963,608.23840 C 266.59024,606.81978 264.83558,604.16911 264.83563,600.28640 C 264.83558,596.40379 266.47824,590.80379 269.76363,583.48640 C 273.04890,576.09447 274.69157,570.60648 274.69163,567.02240 C 274.69157,563.81182 273.01157,562.20649 269.65163,562.20640 C 261.66225,562.20649 253.78492,566.20115 246.01963,574.19040 C 239.22494,581.20914 233.55028,590.09446 228.99563,600.84640 C 224.59029,611.07577 222.38762,620.07310 222.38763,627.83840 C 222.38762,634.78242 224.03029,640.23308 227.31563,644.19040 C 230.82495,648.52107 236.01427,650.68640 242.88363,650.68640 C 251.54493,650.68640 260.54225,647.55040 269.87563,641.27840 C 280.10490,634.40908 285.21956,626.83042 285.21963,618.54240 M 197.12113,654.04640 C 194.58238,654.04640 191.81971,652.59040 188.83313,649.67840 C 185.92105,646.69174 183.68106,645.19841 182.11313,645.19840 L 145.60113,645.19840 C 143.65976,645.19841 140.07577,646.69174 134.84913,649.67840 C 129.69711,652.66506 125.59045,654.15840 122.52913,654.15840 C 119.01979,654.15840 116.40646,652.81440 114.68913,650.12640 C 113.19579,647.81174 112.44913,644.82507 112.44913,641.16640 C 112.44913,632.95308 116.59312,622.49976 124.88113,609.80640 C 132.94511,597.41179 142.35310,586.73446 153.10513,577.77440 C 164.75307,567.99315 174.75840,563.10249 183.12113,563.10240 C 193.94771,563.10249 202.90770,570.23315 210.00113,584.49440 C 215.82502,596.36645 218.73702,608.35044 218.73713,620.44640 C 218.73702,627.91309 217.01969,635.04375 213.58513,641.83840 C 209.32903,649.97707 203.84104,654.04640 197.12113,654.04640 M 212.35313,619.55040 C 212.35303,608.49978 209.73970,597.29979 204.51313,585.95040 C 198.09171,572.21181 190.02772,565.34249 180.32113,565.34240 C 173.00373,565.34249 163.93174,569.97181 153.10513,579.23040 C 143.24910,587.74246 134.51310,597.78512 126.89713,609.35840 C 119.13179,621.23043 115.24912,630.82509 115.24913,638.14240 C 115.24912,644.33974 117.37712,647.43840 121.63313,647.43840 C 124.54511,647.43840 128.42778,645.94507 133.28113,642.95840 C 138.13443,639.97174 141.97976,638.47841 144.81713,638.47840 L 181.32913,638.47840 C 183.71839,638.47841 186.33172,639.97174 189.16913,642.95840 C 192.00638,645.87040 194.39571,647.32640 196.33713,647.32640 C 201.33970,647.32640 205.40903,643.77974 208.54513,636.68640 C 211.08369,630.93709 212.35303,625.22509 212.35313,619.55040 M 177.63313,634.33440 L 148.96113,634.33440 C 151.49975,630.52642 153.81442,627.76376 155.90513,626.04640 C 158.89175,623.50776 162.17708,622.23843 165.76113,622.23840 C 169.27040,622.23843 171.99573,623.47043 173.93713,625.93440 C 175.28106,627.65176 176.51306,630.45175 177.63313,634.33440 M 172.59313,632.09440 C 171.17440,630.00375 169.15840,628.95842 166.54513,628.95840 C 164.00641,628.95842 161.57974,630.00375 159.26513,632.09440 L 172.59313,632.09440 M 91.025633,610.25440 C 86.022904,610.25444 82.028241,611.15044 79.041633,612.94240 L 87.889633,612.71840 C 93.340230,612.64377 97.334893,613.27844 99.873633,614.62240 C 103.23355,616.41443 104.91355,619.81176 104.91363,624.81440 C 104.91355,633.55042 102.86022,641.24108 98.753633,647.88640 C 93.900229,655.72639 87.366903,659.64639 79.153633,659.64640 C 67.878922,659.64639 57.948265,654.56906 49.361633,644.41440 C 41.222949,634.70775 37.153620,624.14243 37.153633,612.71840 C 37.153620,599.87578 42.753614,589.12379 53.953633,580.46240 C 64.332259,572.39848 76.129581,568.36648 89.345633,568.36640 C 98.828225,568.36648 105.32422,569.00115 108.83363,570.27040 C 115.18021,572.58514 118.35354,577.55047 118.35363,585.16640 C 118.35354,595.54512 116.22554,602.45178 111.96963,605.88640 C 108.31088,608.79844 101.32956,610.25444 91.025633,610.25440 M 112.08163,584.04640 C 112.08154,577.55047 109.20688,573.44381 103.45763,571.72640 C 100.99356,570.97981 95.393561,570.60648 86.657633,570.60640 C 74.860248,570.60648 64.332259,574.07848 55.073633,581.02240 C 44.993612,588.63846 39.953617,598.15845 39.953633,609.58240 C 39.953617,619.96110 43.686946,629.66775 51.153633,638.70240 C 59.068264,648.18507 68.102922,652.92640 78.257633,652.92640 C 84.678905,652.92640 89.756234,649.75307 93.489633,643.40640 C 96.700227,638.03041 98.305558,631.90775 98.305633,625.03840 C 98.305558,618.01977 93.713563,614.51044 84.529633,614.51040 C 82.961574,614.51044 80.646909,614.62244 77.585633,614.84640 C 74.524249,615.07044 72.396251,615.18244 71.201633,615.18240 L 69.073633,615.18240 C 71.089586,610.32911 74.225582,607.08111 78.481633,605.43840 C 81.169576,604.39311 85.238905,603.87045 90.689633,603.87040 L 92.817633,603.87040 C 99.238891,603.87045 103.71889,602.97445 106.25763,601.18240 C 110.14021,598.34512 112.08154,592.63312 112.08163,584.04640 M 84.193633,618.31840 C 81.356242,624.88909 77.324246,628.17442 72.097633,628.17440 C 69.409587,628.17442 68.177588,625.00109 68.401633,618.65440 L 68.289633,618.65440 L 68.401633,617.75840 L 68.401633,618.65440 L 84.193633,618.31840 M 78.033633,623.47040 L 74.225633,623.35840 L 74.225633,623.58240 L 74.225633,623.91840 C 74.225582,625.26243 74.412249,625.93442 74.785633,625.93440 C 75.532248,625.93442 76.614913,625.11309 78.033633,623.47040"
       id="text4041" />
  </g>
</svg>
